<svg xmlns="http://www.w3.org/2000/svg" viewBox="0 0 526.59 414.07"><title>accessibility</title><path d="M346.07,264V293.6h-22.3V414.07H22.45V294H0V264H346.07Z"/><path d="M261.81,218.54H436.18V248.8h-22V368.67H338.9V309h21.76V249H261.81V218.54Z"/><path d="M352.14,173.63H526.59v30H504.47v120H429V263.86h21.9V203.77H352.14V173.63Z"/><path d="M246.91,248.63H98.32c0.76-11.31-.05-22.74,2.58-33.31,4.76-19.13,20.93-30.2,43.2-27.36,4.18,0.53,8,3.81,12,5.88,5.59,2.93,11.14,8.21,16.73,8.24s11.46-4.74,16.67-8.2c12.32-8.2,25-8.67,37.61-1.74,13,7.15,19.23,18.93,19.77,33.63C247.14,233.22,246.91,240.7,246.91,248.63Z"/><path d="M427.46,158.06c-1.78.11-3.24,0.27-4.71,0.27-23.8,0-47.6,0-71.4,0-2.66,0-4.47-.39-6-3.09-10.35-18-25.72-27.79-46.87-27.62-0.61,0-1.23-.13-2.62-0.29,2.85-2.86,5.62-5,7.56-7.71,3.53-5,6.62-10.3,9.79-15.53,1.31-2.16,2.15-6.19,3.61-6.38a22.13,22.13,0,0,1,11.53,1.34,229.08,229.08,0,0,1,21.47,11.62,6.68,6.68,0,0,0,7.74,0c5-3,10.31-5.42,15.24-8.5,23.59-14.77,53,4.31,54.62,30.2C427.92,140.79,427.46,149.29,427.46,158.06Z"/><path d="M338.22,203.67H293.56c-11,0-22,.09-33-0.1-1.67,0-4.15-.87-4.85-2.12-10.81-19.43-27.18-29.09-49.42-28.77l-1.56-1.54c1.31-.58,3.11-0.79,3.84-1.78,5-6.79,10.27-13.43,14.33-20.75,3.49-6.28,7.61-8.44,14.27-4.94,7.51,3.95,15,7.92,22.33,12.23,2.86,1.69,5,1.52,7.69-.09,5-3,10.39-5.34,15.26-8.5,21.78-14.13,48.75,2.68,52.77,22.05C337.47,180.27,337.25,191.7,338.22,203.67Z"/><path d="M211.9,131.08c-1.67,22.43-19.81,38.79-41.29,37.22-22.1-1.61-38.29-20.17-36.53-41.88,1.72-21.11,20.09-37.46,40.45-36C196.78,92,213.45,110.16,211.9,131.08Z"/><path d="M392.51,39.17a38.92,38.92,0,1,1-77.84-.51A38.92,38.92,0,0,1,392.51,39.17Z"/><path d="M263.34,123c-21.93,0-39.05-17.05-39-38.86A39,39,0,1,1,263.34,123Z"/></svg>