<svg xmlns="http://www.w3.org/2000/svg" viewBox="0 0 313.72 455.29"><title>acceptability</title><path d="M21.63,239.42c2-6.34,4-12.69,6.09-19,3.36-10,2-13.4-7.33-18.12-3.95-2-7.86-4-11.84-6-11.42-5.5-10.26-13.85-3.17-21.7a152.12,152.12,0,0,0,10.11-12.08c4.08-5.58,3.82-8.76-.51-14.07-3.53-4.33-7.09-8.64-10.82-12.8-5.68-6.34-5.52-14.31,2.22-18.07,5-2.42,9.76-5.26,14.79-7.57,10.12-4.66,9.31-9.7,6.25-20.46A177.76,177.76,0,0,1,23.36,71c-0.58-3.36,1.54-5.79,4.7-6.58a106.79,106.79,0,0,1,12.52-2.14c4.23-.52,8.56-0.4,12.75-1.14,3.94-.7,7.5-2.32,8.08-7.21,0.44-3.7,1.35-7.35,1.83-11s0.56-7.53,1.07-11.27c1.09-8,6.2-11.21,14.05-8.79C84.27,24.7,90.1,26.76,96,28.56,100.9,30,105.13,30.43,109,24c2.94-4.9,5.59-10,8.06-15.15,5.63-11.77,13.93-10.69,22-3.45a156,156,0,0,0,12.08,10.11c5.36,3.93,8.67,3.76,13.69-.29q6.72-5.41,13.18-11.15c6-5.33,14-5.83,18,2.33,1.73,3.51,3.66,6.93,5.3,10.48,6.56,14.19,9.62,14.51,23.42,10.35a144.67,144.67,0,0,1,17.57-3.9c3.55-.6,6.08,1.5,6.91,4.93a110,110,0,0,1,2.07,12c0.51,4.07.56,8.19,1.07,12.26,0.72,5.73,3.54,8.73,9.29,9.6,4.21,0.64,8.51.77,12.77,1.08a35.75,35.75,0,0,1,5,.21C290.69,66,294,69.26,289.47,81.82c-1.71,4.74-3.15,9.58-4.65,14.4-1.82,5.85-.73,9.4,4.51,12.54s10.67,5.67,16,8.54c11.17,6,10.09,13.06,3.16,21.27-3.5,4.14-7.23,8.11-10.45,12.47-4,5.36-3.78,8.68.26,13.69q5.41,6.72,11.15,13.18c5.46,6.13,5.72,14.13-2.31,18-4.39,2.13-8.91,4-13.14,6.45-10.54,6-12,7.62-8,21.31a162.83,162.83,0,0,1,4.17,18c0.69,3.93-1.35,6.69-5.38,7.52-3.82.79-7.67,1.51-11.54,2-4.07.51-8.19,0.56-12.26,1.07-6,.76-8.91,3.67-9.69,9.76-0.83,6.5-1.23,13-2.08,19.54-1.11,8.47-6,11.5-14.23,8.94-5.9-1.84-11.75-3.85-17.65-5.7s-9.39-.77-12.55,4.45C202,294,199.42,299,197,304c-6.06,12.48-14.24,11.71-22.91,3.65a132.44,132.44,0,0,0-11.73-9.77c-5.19-3.81-8.62-3.57-13.69.56-4.46,3.63-8.84,7.36-13.17,11.15-6.37,5.58-14.3,5.1-17.71-2.24-2.06-4.42-4.19-8.82-6.54-13.09-5.9-10.71-7.76-12.45-21.56-8.15a139.57,139.57,0,0,1-17.55,4.07c-4.1.71-7-1.25-7.84-5.58-0.74-4-1.48-8-2-12.06-0.51-4.24-.36-8.58-1.17-12.74-0.69-3.52-2.27-6.91-6.59-7.58S46.18,250.9,42,250.29c-4.35-.63-8.75-1-13.05-1.85C24.29,247.51,21.81,244.59,21.63,239.42ZM157,46.28C95.1,47,47.77,95.58,46.48,153.8a110.35,110.35,0,1,0,220.64,5C268.08,95.57,217.42,47,157,46.28Z"/><path d="M153.55,315.88L109.43,455.06l-1.29.23L85.53,402.81,35.82,433.26c0.94-3.67,1.43-6,2.14-8.26q12.22-38.62,24.5-77.21c3.9-12.24,8-24.42,11.69-36.72,0.93-3.07,2.39-4.77,5.42-5.5,5.52-1.33,12-5.26,16.21-3.55s5.79,9.1,8.78,13.85c2.34,3.72,4.93,7.31,7.63,10.78,6.58,8.48,18,6.62,24.76,1.39,5.28-4.09,10.32-8.5,15.46-12.77Z"/><path d="M159.9,315.51c4.86,4,8.73,7.11,12.43,10.38,14.15,12.52,27.11,6.52,34.73-8.05,2.35-4.5,4.65-9,6.74-13.65,1.17-2.59,2.61-3.45,5.41-2.49,5.84,2,11.81,3.62,17.6,5.75,1.14,0.42,2,2.31,2.47,3.7q17.07,53.23,34,106.5a63.71,63.71,0,0,1,3.28,14.9L228,402.8,205.5,455.13l-1.33-.06Z"/><path d="M258.28,156.61c-0.45,56.32-44.79,102.51-103.57,101.53-54-.9-100.31-44.13-99.27-103.68,0.94-53.71,44-100.22,103.92-99C213.46,56.56,257.43,99.57,258.28,156.61ZM112.79,211.1c-0.19,4.89,2.06,6.39,6.32,4.23q12.63-6.41,25.08-13.19c8.43-4.6,16.7-4.62,25.14,0,8.15,4.44,16.36,8.77,24.66,12.91,1.55,0.77,4,1.07,5.41.34,1-.51,1.38-3.21,1.14-4.79-1.4-9.35-3-18.67-4.65-28-1.58-9,.25-16.76,7.1-23.18,6.55-6.15,13-12.42,19.27-18.85,1.58-1.63,2.32-4.08,3.44-6.15-2.16-1-4.23-2.53-6.5-2.92-8-1.37-16.07-2.59-24.16-3.42-10.48-1.08-18-5.78-22.32-15.71-3.44-7.92-7.38-15.64-11.39-23.3-1-1.88-3.11-3.15-4.72-4.71-1.41,1.56-3.21,2.9-4.15,4.7-4.46,8.56-8.64,17.26-13,25.87-3.53,7-9.06,11.22-17,12.33q-15,2.11-30,4.6c-1.62.27-4.15,1.44-4.34,2.52-0.27,1.55.82,3.81,2.05,5.06q10,10.15,20.32,19.92c7,6.58,8.77,14.47,7,23.64C115.78,192.45,114.33,202,112.79,211.1Z"/></svg>