<svg xmlns="http://www.w3.org/2000/svg" viewBox="0 0 401 413"><title>adaptability</title><path d="M166,413c0-3.17-.11-6.34,0-9.5,0.25-5.93.25-11.91,1.1-17.77s0.9-11.79,2-17.57c1.73-9.29,2.84-18.67,4.64-28A314.19,314.19,0,0,1,187,292.8a163.58,163.58,0,0,1,14.55-30.95c3.1-5,5.83-10.21,9.14-15,3.78-5.52,7.87-10.85,12.09-16,4.36-5.36,8.63-10.91,13.69-15.56,8.93-8.21,17.94-16.34,27.87-23.44a303.9,303.9,0,0,1,35-21.54c2.15-1.14,4.21-2.46,6.75-4l-13.59-33.6c6.57,2,12.25,3.67,17.87,5.48,15.94,5.12,31.85,10.36,47.81,15.45,14.24,4.54,28.53,8.94,42.8,13.4v3a2.17,2.17,0,0,0-.78.51c-3.64,6.56-7.29,13.12-10.86,19.72-4.51,8.32-8.93,16.69-13.41,25-4.8,8.92-9.66,17.79-14.42,26.73-4.07,7.64-8,15.35-12.05,23a23.2,23.2,0,0,1-1.81,2.47c-5.15-11.08-8.74-22.21-14.15-33-5.69,3.38-10.94,6.33-16,9.56-7.61,4.83-14.51,10.6-21.56,16.21-6.71,5.33-12,11.79-17.49,18.13-4.63,5.4-8.19,11.74-12.08,17.76A113.42,113.42,0,0,0,255,319.93c-2.82,8-5.28,16.05-7.52,24.2-1.55,5.64-3.13,11.29-3.59,17.2-0.37,4.71-1.41,9.36-2.07,14s-1.27,9.38-1.83,14.08c-0.16,1.31.34,2.81-.11,4-1.26,3.23-.71,6.53-0.93,9.81s-0.64,6.52-1,9.77H166Z"/><path d="M0,166c7.13-2.24,14.23-4.55,21.38-6.7,13.85-4.16,27.76-8.16,41.59-12.38,13.52-4.13,27-8.47,40.49-12.66,1.65-.51,3.4-0.7,5.63-1.15C105.29,144.7,99.8,155.19,96,166.5c33.49,17.22,63.76,38.37,87,68.81-16.89,26.05-27.68,54.54-35.44,85.55-15.13-39.7-42.21-67.09-78.77-85.92-3,2.43-3.18,6.3-4.74,9.42-1.82,3.64-3.34,7.43-4.88,11.2s-2.9,7.53-4.48,11.65a19.75,19.75,0,0,1-2.63-3c-2.44-4.43-4.76-8.93-7.11-13.4-3.34-6.36-6.6-12.77-10-19.09-5.38-9.9-10.91-19.71-16.31-29.6C13.39,192.55,8.26,182.88,3,173.27A43.06,43.06,0,0,0,0,169Q0,167.5,0,166Z"/><path d="M203,0c2,2.79,3.78,5.7,5.92,8.36,7.4,9.2,14.92,18.29,22.36,27.45,5.58,6.86,11.16,13.72,16.65,20.66,5.89,7.43,11.63,15,17.52,22.41,2.43,3.08,5.07,6,7.47,8.82a2.75,2.75,0,0,1-.12.8,0.6,0.6,0,0,1-.42.26H237v5.89c0,25.48-.06,51,0.07,76.45,0,3.72-1.11,6-4.3,8.08-3.69,2.41-6.89,5.63-10.1,8.7q-7.22,6.91-14.13,14.13c-2.49,2.59-4.69,5.44-7.31,8.52a39.51,39.51,0,0,1-4.5-4.38c-5.56-7.54-12.8-13.45-19.29-20.08-2.84-2.9-6.35-5.13-9.54-7.7a7.44,7.44,0,0,1-3-6.39c0.14-25.65.08-51.3,0.08-76.95,0-1.81,0-3.62,0-6l-18.05,0-18.67,0L201,0h2Z"/></svg>