<svg xmlns="http://www.w3.org/2000/svg" viewBox="0 0 501.87 457.05"><title>availability</title><path d="M273.72,457.05c0-15.15,0-29.45,0-43.76,0-11.16,0-22.33,0-33.49,0-8-3.53-11.59-11.59-11.63q-23.24-.12-46.48,0c-7.68,0-11.23,3.68-11.25,11.44-0.06,23.66,0,47.32,0,71,0,2,0,3.91,0,6.46H72.91c-10.43,0-13.38-3-13.38-13.34q0-84.47.12-168.94c0-2.45,1.16-5.67,2.93-7.22Q149.21,191.62,236.11,116c0.49-.43,1.05-0.79,2-1.5q10.84,9.43,21.7,18.89,74.35,64.92,148.74,129.79a9.64,9.64,0,0,1,3.69,8.09q-0.14,86.22-.07,172.44C412.17,454,409,457,398.71,457h-125ZM320,271.66c-5.65,0-11.31-.05-17,0-7.28.08-11.21,3.85-11.26,11q-0.13,17,0,33.92c0.05,6.88,4,10.87,10.84,10.94q17,0.17,33.92,0c7-.06,11-3.91,11-10.75q0.19-17.21,0-34.42c-0.08-6.62-4.06-10.52-10.62-10.66C331.29,271.56,325.64,271.66,320,271.66Zm-56.22,27.81q0-8.48,0-17c0-.17,0-0.33,0-0.5-0.24-6.32-4-10.24-10.37-10.31q-17.46-.19-34.92,0c-6.33.07-10.34,3.92-10.45,10.29-0.2,11.64-.18,23.28,0,34.92,0.1,6.64,4.07,10.52,10.69,10.6q17.21,0.18,34.42,0c6.66-.07,10.51-4,10.62-10.57C263.84,311.11,263.76,305.29,263.76,299.47Zm-83.88.42q0-8.5,0-17c0-.33,0-0.67,0-1-0.27-6.17-3.89-10.1-10-10.18q-17.74-.24-35.5,0c-6,.07-10,3.69-10.08,9.57q-0.39,18.24,0,36.49c0.11,5.83,4.11,9.62,10,9.71q17.74,0.27,35.49,0c6.14-.09,9.91-4,10.06-10.1C180,311.55,179.87,305.72,179.88,299.89Z"/><path d="M237.86,85.71c-17,14.71-33.58,29.1-50.18,43.5Q111,195.69,34.43,262.2C28,267.79,21,270.16,12.8,267c-7.32-2.78-11.56-8.33-12.6-16S2.26,237.47,8,232.55q40.45-35,80.81-70.06Q155,105,221.29,47.56c12.49-10.84,20.7-11,33.3-.05Q361.25,140,467.85,232.57c9.3,8.07,10.61,20.13,3.24,28.82-7.54,8.89-19.7,9.41-29.32,1.07Q341.69,175.74,241.65,89C240.52,88,239.38,87,237.86,85.71Z"/><path d="M400.06,9.69c14,14.07,30.67,15,48.33,13.55,9.87-.79,19.88-0.14,29.8.4,3.18,0.17,6.4,1.77,9.38,3.19,9.18,4.38,14.93,9.89,14.24,22-1.29,22.74-.37,45.6-0.37,69a19.18,19.18,0,0,1-2.72-1.64c-10.84-9.71-23.7-13-37.93-12.08-9.14.59-18.28,1.32-27.43,1.49-12,.23-22.51-4-31.34-12.12a7.78,7.78,0,0,1-2.45-5c-0.15-25.49-.1-51-0.07-76.47A15.61,15.61,0,0,1,400.06,9.69Z"/><path d="M378.83,130.41c-8.18-7.23-15.78-13.84-23.2-20.66-0.89-.82-1.12-2.7-1.12-4.09q-0.09-46.22,0-92.45C354.51,5.37,359.92-.14,367,0c7,0.14,12.21,5.62,12.22,13.12q0.07,56.47,0,112.93C379.25,127.17,379,128.28,378.83,130.41Z"/></svg>