<svg xmlns="http://www.w3.org/2000/svg" viewBox="0 0 512 512"><title>calendar</title><path d="M192.77,271.38c-2.85,4.11-6.32,14.42-10.43,16.94a41.12,41.12,0,0,1-13.9,5.25,73.51,73.51,0,0,1-16,1.26v24.43h39.47V416h31.86V256.06H198.38A35.61,35.61,0,0,1,192.77,271.38ZM368,128h32a16,16,0,0,0,16-16V16A16,16,0,0,0,400,0H368a16,16,0,0,0-16,16v96A16,16,0,0,0,368,128Zm-256,0h32a16,16,0,0,0,16-16V16A16,16,0,0,0,144,0H112A16,16,0,0,0,96,16v96A16,16,0,0,0,112,128ZM480,64H448v80a16,16,0,0,1-16,16H336a16,16,0,0,1-16-16V64H192v80a16,16,0,0,1-16,16H80a16,16,0,0,1-16-16V64H32A32,32,0,0,0,0,96V480a32,32,0,0,0,32,32H480a32,32,0,0,0,32-32V96A32,32,0,0,0,480,64Zm0,400a16,16,0,0,1-16,16H48a16,16,0,0,1-16-16V208a16,16,0,0,1,16-16H464a16,16,0,0,1,16,16V464ZM255.76,287.71h79.49c-15,18.43-27,37.2-36.24,59.28s-10.21,45.09-12,69h34.1c0.14-10.66-3.12-22.16-.82-34.5a250.2,250.2,0,0,1,9.87-36.56,190.13,190.13,0,0,1,15.94-34,112.78,112.78,0,0,1,21.87-27V256H255.74v31.66h0Z"/></svg>