<svg xmlns="http://www.w3.org/2000/svg" viewBox="0 0 512 512"><path d="M256,0C114.62,0,0,114.61,0,256S114.61,512,256,512,512,397.39,512,256,397.39,0,256,0Zm0,480a223.25,223.25,0,0,1-88.61-18.23L284,330.63A16,16,0,0,0,288,320V272a16,16,0,0,0-16-16c-56.49,0-116.1-58.73-116.69-59.31A16,16,0,0,0,144,192H80a16,16,0,0,0-16,16v96a16,16,0,0,0,8.85,14.31L128,345.89v93.94A224.14,224.14,0,0,1,53.57,160H112a16,16,0,0,0,11.31-4.69l64-64A16,16,0,0,0,192,80V41.29A224.63,224.63,0,0,1,354.14,54.6c-2.07,1.75-4.09,3.58-6,5.52A96,96,0,0,0,415.93,224q2.37,0,4.76-.12c6.91,25.9,19.38,93.33-4.2,186.17a16,16,0,0,0-.42,2.61A223.3,223.3,0,0,1,256,480h0Z"/></svg>
