<svg xmlns="http://www.w3.org/2000/svg" xmlns:xlink="http://www.w3.org/1999/xlink" xmlns:sketch="http://www.bohemiancoding.com/sketch/ns" viewBox="0 0 100 100" version="1.1" x="0px" y="0px"><title>new_window</title><desc>Created with Sketch.</desc><g stroke="none" stroke-width="1" fill="none" fill-rule="evenodd" sketch:type="MSPage"><g sketch:type="MSLayerGroup" transform="translate(2.000000, 2.000000)" fill="#af202f"><path d="M73.7883228,16 L44.56401,45.2243128 C42.8484762,46.9398466 42.8459918,49.728257 44.5642987,51.4465639 C46.2791092,53.1613744 49.0684023,53.1650001 50.7865498,51.4468526 L80,22.2334024 L80,32.0031611 C80,34.2058797 81.790861,36 84,36 C86.2046438,36 88,34.2105543 88,32.0031611 L88,11.9968389 C88,10.8960049 87.5527117,9.89722307 86.8294627,9.17343595 C86.1051125,8.44841019 85.1063303,8 84.0031611,8 L63.9968389,8 C61.7941203,8 60,9.790861 60,12 C60,14.2046438 61.7894457,16 63.9968389,16 L73.7883228,16 L73.7883228,16 Z M88,56 L88,36.9851507 L88,78.0296986 C88,83.536144 84.0327876,88 79.1329365,88 L16.8670635,88 C11.9699196,88 8,83.5274312 8,78.0296986 L8,17.9703014 C8,12.463856 11.9672124,8 16.8670635,8 L59.5664682,8 L40,8 C42.209139,8 44,9.790861 44,12 C44,14.209139 42.209139,16 40,16 L18.2777939,16 C17.0052872,16 16,17.1947367 16,18.668519 L16,77.331481 C16,78.7786636 17.0198031,80 18.2777939,80 L77.7222061,80 C78.9947128,80 80,78.8052633 80,77.331481 L80,56 C80,53.790861 81.790861,52 84,52 C86.209139,52 88,53.790861 88,56 L88,56 Z" sketch:type="MSShapeGroup"></path></g></g></svg>
