<svg xmlns="http://www.w3.org/2000/svg" viewBox="0 0 395.32 443.26"><title>governance</title><path d="M235.4,393c-2.55,2.29-5.08,4.42-7.45,6.72q-20,19.47-40,39c-6.63,6.44-16.59,5.93-23.78-1.08-15.24-14.85-30.5-29.69-46-44.74a22.19,22.19,0,0,0-1.89,1.49q-20.91,20.38-41.8,40.77c-3.88,3.79-8,6.28-14,6.1a16.84,16.84,0,0,1-11.8-5.13C34.13,422,19.67,407.75,5.1,393.62A16,16,0,0,1,0,381.33q0.14-163,0-326C0,29.28,18.93,6.48,43.56,1.13A49,49,0,0,1,53.86.1C150,0,246.18-.13,342.34.18c24.43,0.08,47.24,19.83,51.74,44,3.75,20.19-.83,38.09-16.11,52.13-5.39,5-12.34,8.53-19.1,11.57-4.4,2-5.94,3.86-5.93,8.81,0.19,87.16-.09,174.33.41,261.49,0.07,11.4-3.72,19.22-12,26.13-6,5-11.42,10.63-17.08,16-6.75,6.4-13.43,12.87-20.23,19.21-5.28,4.92-14.54,5-19.86.15-5.76-5.26-11.42-10.64-17-16C256.74,413.63,246.35,403.56,235.4,393ZM60.76,404.53c14.78-14.32,29.29-27.78,43.07-41.95,9.14-9.4,19.4-9.13,28.47.06,14.49,14.67,29.46,28.86,44.22,43.24,10.94-10.53,21.81-21,32.74-31.5,5.15-4.93,10.64-9.53,15.55-14.69,6.3-6.63,16.64-4.68,22,.54Q264.94,378,283.26,395.7c3.43,3.3,7.12,6.33,11.09,9.84,8.28-8,16.3-15.95,24.5-23.68a9.68,9.68,0,0,0,3.29-7.77q-0.13-128.21-.07-256.41v-5.63h-6.55q-129,0-257.91,0a20,20,0,0,1-5.4-.44c-6.64-1.88-12.07-9.92-11.11-16.12,1.39-9,7.48-14.32,16.41-14.42,11.39-.13,22.19-8.05,25-19.11A23.87,23.87,0,0,0,71,35c-8.71-5-17.52-5.79-26.58-1C35.22,38.83,31.1,46.75,31.1,56.86Q31,212.81,30.89,368.76c0,6,2.46,9.55,6.43,13,2,1.72,4.16,3.29,6,5.14C49.11,392.61,54.79,398.46,60.76,404.53ZM109.12,80.86c1.2,0.08,2,.18,2.85.18q113.7,0,227.39-.07c9.82,0,17.28-5.41,21.91-13.73,9.17-16.47-3.44-35.94-21.75-36-75.3-.38-150.59-0.16-225.89-0.15-1.43,0-2.85.15-4.38,0.23C117.13,51.63,116,62.93,109.12,80.86Z"/><path d="M220.94,265.08c13.37,18.83,8.22,46.26-16,56.38-21,8.8-42.21,7.46-62.76-2.4-7.38-3.54-7.88-5-5.14-12.45,1.24-3.36,2.59-6.69,4.13-9.92,1.7-3.57,4.64-5,8-2.52,7.55,5.48,16.33,7.39,25.17,8.71a28.42,28.42,0,0,0,19.33-4.23c7.25-4.54,8.74-17-3.09-22.56-10.14-4.79-20.72-8.66-31.05-13-10.84-4.6-21.14-10-27-21-6.58-12.31-4.66-29.36,6.05-40a41,41,0,0,1,4-3.3c-2.08-7.35-5.08-13.37-5.21-19.46-0.23-11.12,3.4-21.55,12.66-28.58,13.6-10.33,29.21-13.74,46-10.61a225.31,225.31,0,0,1,23.49,6.22c4.44,1.34,5.62,4.61,3.88,9-1.38,3.48-2.38,7.1-3.77,10.57-1.83,4.59-4.65,5.54-9.11,3.34-10.37-5.11-21.14-8-32.7-5.07a23.57,23.57,0,0,0-7.94,3.71c-6.63,4.83-5,14.09,3.7,18.16,9.12,4.25,18.72,7.46,28.14,11,10.12,3.85,19.68,8.75,26.13,17.7,10.35,14.36,8.18,35.71-4.39,48.35A25.2,25.2,0,0,1,220.94,265.08Zm-17.55-13.8c1.3-3.83,3.13-7.25,3.55-10.83,0.87-7.34-4.45-13.77-13.47-17.22-9.87-3.78-19.73-7.55-29.67-11.13-1.11-.4-3.4,0-3.94.87-5.55,8.56-5.91,14.25,2.67,20.85A24.22,24.22,0,0,0,168,237C179.46,241.69,190.94,246.27,203.39,251.28Z"/></svg>