<svg version="1.1" xmlns="http://www.w3.org/2000/svg" xmlns:xlink="http://www.w3.org/1999/xlink" width="448" height="448" viewBox="0 0 448 448">
<path d="M128 0q3.25 0 5.625 2.375t2.375 5.625v368q0 5-4.25 7l-120 64q-1.75 1-3.75 1-3.25 0-5.625-2.375t-2.375-5.625v-368q0-5 4.25-7l120-64q1.75-1 3.75-1zM440 0q3.25 0 5.625 2.375t2.375 5.625v368q0 5-4.25 7l-120 64q-1.75 1-3.75 1-3.25 0-5.625-2.375t-2.375-5.625v-368q0-5 4.25-7l120-64q1.75-1 3.75-1zM160 0q2 0 3.5 0.75l128 64q4.5 2.5 4.5 7.25v368q0 3.25-2.375 5.625t-5.625 2.375q-2 0-3.5-0.75l-128-64q-4.5-2.5-4.5-7.25v-368q0-3.25 2.375-5.625t5.625-2.375z"></path>
</svg>
