<svg xmlns="http://www.w3.org/2000/svg" viewBox="0 0 512.1 416"><title>twitter</title><path d="M512,113.2a207.17,207.17,0,0,1-60.3,16.5,105.64,105.64,0,0,0,46.2-58.1,211.24,211.24,0,0,1-66.7,25.5,105.16,105.16,0,0,0-179,95.8A298.13,298.13,0,0,1,35.7,83.1,105.18,105.18,0,0,0,68.2,223.3a105.15,105.15,0,0,1-47.6-13.1v1.3a105,105,0,0,0,84.3,103,105.22,105.22,0,0,1-27.7,3.7,108,108,0,0,1-19.8-1.9,105.37,105.37,0,0,0,98.1,73A210.67,210.67,0,0,1,25,434.3,208.82,208.82,0,0,1-.1,432.8,297.12,297.12,0,0,0,161,480c193.2,0,298.9-160.1,298.9-298.9,0-4.6-.1-9.1-0.3-13.6A211.44,211.44,0,0,0,512,113.2h0Z" transform="translate(0.1 -64)"/></svg>