<svg xmlns="http://www.w3.org/2000/svg" viewBox="0 0 370.5 448"><title>youtube</title><path d="M242.75,311v52.75q0,16.75-9.75,16.75-5.75,0-11.25-5.5V299.75q5.5-5.5,11.25-5.5Q242.75,294.25,242.75,311Zm84.5,0.25v11.5h-22.5v-11.5q0-17,11.25-17T327.25,311.25Zm-241.5-54.5H112.5v-23.5h-78v23.5H60.75V399h25V256.75Zm72,142.25H180V275.5H157.75V370q-7.5,10.5-14.25,10.5-4.5,0-5.25-5.25a69.58,69.58,0,0,1-.25-8.75v-91H115.75v97.75q0,12.25,2,18.25,3,9.25,14.5,9.25,12,0,25.5-15.25V399ZM265,362V312.75q0-18.25-2.25-24.75Q258.5,274,245,274q-12.5,0-23.25,13.5V233.25H199.5V399h22.25V387Q233,400.75,245,400.75q13.5,0,17.75-13.75Q265,380.25,265,362Zm84.5-2.5v-3.25H326.75q0,12.75-.5,15.25-1.75,9-10,9-11.5,0-11.5-17.25V341.5H349.5V315.75q0-19.75-6.75-29Q333,274,316.25,274q-17,0-26.75,12.75-7,9.25-7,29V359q0,19.75,7.25,29,9.75,12.75,27,12.75,18,0,27-13.25A30.39,30.39,0,0,0,349,374Q349.5,371.75,349.5,359.5Zm-152-228.25V78.75q0-17.25-10.75-17.25T176,78.75v52.5q0,17.5,10.75,17.5T197.5,131.25ZM377.25,319q0,58.5-6.5,87.5a47.48,47.48,0,0,1-14.5,24.75,43.73,43.73,0,0,1-25.5,11.5Q284.75,448,192,448T53.25,442.75a44.31,44.31,0,0,1-25.62-11.5A45.69,45.69,0,0,1,13.25,406.5q-6.5-28-6.5-87.5,0-58.5,6.5-87.5a47.48,47.48,0,0,1,14.5-24.75A45.33,45.33,0,0,1,53.5,195q45.75-5,138.5-5t138.75,5a46.95,46.95,0,0,1,40,36.5Q377.25,259.5,377.25,319ZM127.75,0h25.5L123,99.75V167.5H98V99.75q-3.5-18.5-15.25-53Q73.5,21,66.5,0H93l17.75,65.75Zm92.5,83.25V127q0,20.25-7,29.5-9.25,12.75-26.5,12.75-16.75,0-26.25-12.75-7-9.5-7-29.5V83.25q0-20,7-29.25,9.5-12.75,26.25-12.75,17.25,0,26.5,12.75Q220.25,63.25,220.25,83.25ZM304,42.75V167.5H281.25V153.75q-13.25,15.5-25.75,15.5-11.5,0-14.75-9.25-2-6-2-18.75V42.75H261.5V134.5q0,8.25.25,8.75,0.75,5.5,5.25,5.5,6.75,0,14.25-10.75V42.75H304Z" transform="translate(-6.75)"/></svg>