<svg id="Layer_1" data-name="Layer 1" xmlns="http://www.w3.org/2000/svg" viewBox="0 0 334.04 174.31"><defs><style>.cls-1{fill:#3c3c3b;}.cls-2{fill:#af1921;}.cls-3{fill:#d9d9d9;}</style></defs><title>logo</title><path class="cls-1" d="M6.63,23.4V39.85H1.32V0.44H12.46a24.34,24.34,0,0,1,6.46.76,12.34,12.34,0,0,1,4.5,2.19A8.75,8.75,0,0,1,26,6.83a11.55,11.55,0,0,1,.85,4.52,11.35,11.35,0,0,1-.66,3.91,10.32,10.32,0,0,1-1.91,3.26A11.45,11.45,0,0,1,21.27,21a15.08,15.08,0,0,1-4.08,1.54,5.63,5.63,0,0,1,1.76,1.68l11.5,15.65H25.71a2.33,2.33,0,0,1-2.15-1.13L13.34,24.64a3,3,0,0,0-1-.95,3.67,3.67,0,0,0-1.65-.29h-4Zm0-3.88h5.58A13.59,13.59,0,0,0,16.32,19a8.35,8.35,0,0,0,3-1.6,6.61,6.61,0,0,0,1.8-2.46,8,8,0,0,0,.6-3.16,6.28,6.28,0,0,0-2.32-5.31Q17,4.65,12.46,4.65H6.63V19.53Z"/><path class="cls-1" d="M45.26,39.85H39.93V0.44h5.33V39.85Z"/><path class="cls-1" d="M76.15,36a26.07,26.07,0,0,0,2.93-.15,18.62,18.62,0,0,0,2.52-.45,17.09,17.09,0,0,0,2.23-.73q1-.43,2.09-1V25H79.8a1.16,1.16,0,0,1-.84-0.3,1,1,0,0,1-.32-0.74v-3h12.1V36a21.86,21.86,0,0,1-3.09,1.87,21,21,0,0,1-3.44,1.33,25,25,0,0,1-3.92.8,36.76,36.76,0,0,1-4.54.26,20.47,20.47,0,0,1-7.87-1.47,18.09,18.09,0,0,1-6.16-4.12,18.71,18.71,0,0,1-4-6.37,22.35,22.35,0,0,1-1.44-8.17,22.9,22.9,0,0,1,1.42-8.22A17.68,17.68,0,0,1,68.08,1.46,22.76,22.76,0,0,1,76.42,0a25.81,25.81,0,0,1,4.35.34,20.35,20.35,0,0,1,3.73,1A17.39,17.39,0,0,1,87.67,2.9,19.44,19.44,0,0,1,90.39,5L88.88,7.4a1.39,1.39,0,0,1-1.21.74,2,2,0,0,1-1-.3Q86,7.45,85.17,6.9a13.26,13.26,0,0,0-2.08-1.06A16.77,16.77,0,0,0,80.2,5a19,19,0,0,0-3.95-.36,16,16,0,0,0-6,1.09,12.73,12.73,0,0,0-4.59,3.11,13.74,13.74,0,0,0-2.92,4.9,19.22,19.22,0,0,0-1,6.45,19.53,19.53,0,0,0,1.06,6.67,14.07,14.07,0,0,0,3,5,12.87,12.87,0,0,0,4.57,3.11A15.34,15.34,0,0,0,76.15,36Z"/><path class="cls-1" d="M133.65,39.85h-5.36V21.92H107.06V39.85h-5.36V0.44h5.36V18h21.23V0.44h5.36V39.85Z"/><path class="cls-1" d="M172.86,0.44V4.92H160.13V39.85H154.8V4.92H142V0.44h30.86Z"/><path class="cls-1" d="M221.43,0.44V4.92H208.7V39.85h-5.33V4.92H190.57V0.44h30.86Z"/><path class="cls-1" d="M263.7,20.16a22.73,22.73,0,0,1-1.4,8.13,18.6,18.6,0,0,1-4,6.37,17.69,17.69,0,0,1-6.15,4.14,22.09,22.09,0,0,1-15.85,0,17.73,17.73,0,0,1-6.13-4.14,18.6,18.6,0,0,1-4-6.37,22.73,22.73,0,0,1-1.4-8.13,22.74,22.74,0,0,1,1.4-8.13,18.76,18.76,0,0,1,4-6.38,17.79,17.79,0,0,1,6.13-4.17,21.9,21.9,0,0,1,15.85,0,17.76,17.76,0,0,1,6.15,4.17,18.76,18.76,0,0,1,4,6.38A22.74,22.74,0,0,1,263.7,20.16Zm-5.47,0a20,20,0,0,0-1-6.52,13.79,13.79,0,0,0-2.8-4.88A12.18,12.18,0,0,0,250,5.69a16,16,0,0,0-11.52,0,12.3,12.3,0,0,0-4.41,3.07,13.69,13.69,0,0,0-2.82,4.88,20,20,0,0,0-1,6.52,19.9,19.9,0,0,0,1,6.5,13.7,13.7,0,0,0,2.82,4.87,12.15,12.15,0,0,0,4.41,3.05,16.21,16.21,0,0,0,11.52,0,12,12,0,0,0,4.4-3.05,13.81,13.81,0,0,0,2.8-4.87A19.9,19.9,0,0,0,258.22,20.16Z"/><path class="cls-2" d="M25.08,66.08V72H7.45V83H21.34v5.69H7.45V99.94H25.08v5.91H0V66.08H25.08Z"/><path class="cls-2" d="M69.55,86a21.5,21.5,0,0,1-1.46,8,18,18,0,0,1-10.45,10.4,22.32,22.32,0,0,1-8.22,1.46H34.24V66.08H49.42a22.14,22.14,0,0,1,8.22,1.47A18.6,18.6,0,0,1,64,71.65a18.31,18.31,0,0,1,4.1,6.28A21.51,21.51,0,0,1,69.55,86ZM62,86a18.24,18.24,0,0,0-.88-5.87,12.46,12.46,0,0,0-2.5-4.4,10.8,10.8,0,0,0-3.95-2.76,13.58,13.58,0,0,0-5.24-1H41.69v28h7.73a13.57,13.57,0,0,0,5.24-1,10.79,10.79,0,0,0,3.95-2.76,12.45,12.45,0,0,0,2.5-4.4A18.24,18.24,0,0,0,62,86Z"/><path class="cls-2" d="M94.1,99.88a9.77,9.77,0,0,0,3.84-.72,8,8,0,0,0,2.86-2A8.78,8.78,0,0,0,102.59,94a12.92,12.92,0,0,0,.62-4.12V66.08h7.4V89.9a18.39,18.39,0,0,1-1.14,6.56,14.83,14.83,0,0,1-3.29,5.2,15,15,0,0,1-5.2,3.41,19.94,19.94,0,0,1-13.75,0,14.57,14.57,0,0,1-8.46-8.61,18.36,18.36,0,0,1-1.14-6.56V66.08H85V89.87A12.92,12.92,0,0,0,85.65,94a9,9,0,0,0,1.77,3.15,7.79,7.79,0,0,0,2.85,2A9.76,9.76,0,0,0,94.1,99.88Z"/><path class="cls-2" d="M148.22,96.47a1.39,1.39,0,0,1,1,.47l2.92,3.16a16,16,0,0,1-6,4.59,20.54,20.54,0,0,1-8.48,1.59,20.05,20.05,0,0,1-8-1.51,17.53,17.53,0,0,1-6-4.21,18.42,18.42,0,0,1-3.84-6.44A24.17,24.17,0,0,1,118.58,86a22,22,0,0,1,1.48-8.21,18.54,18.54,0,0,1,10.63-10.61,22.18,22.18,0,0,1,8.29-1.5,19.57,19.57,0,0,1,7.74,1.42,18.09,18.09,0,0,1,5.68,3.75l-2.47,3.44a2.25,2.25,0,0,1-.56.58,1.6,1.6,0,0,1-.95.25,2.16,2.16,0,0,1-1.29-.5,16.07,16.07,0,0,0-1.68-1.07,13.69,13.69,0,0,0-2.57-1.07,14.85,14.85,0,0,0-9.1.48,11.46,11.46,0,0,0-4,2.79,12.84,12.84,0,0,0-2.64,4.41,17,17,0,0,0-.95,5.84,17.43,17.43,0,0,0,.95,6,13.11,13.11,0,0,0,2.57,4.4,11,11,0,0,0,3.82,2.74,11.82,11.82,0,0,0,4.73.95,20.56,20.56,0,0,0,2.74-.17,11.58,11.58,0,0,0,2.25-.52,10,10,0,0,0,2-.92A12.18,12.18,0,0,0,147,97a2.59,2.59,0,0,1,.58-0.4A1.46,1.46,0,0,1,148.22,96.47Z"/><path class="cls-2" d="M195.47,105.85h-5.72a2.5,2.5,0,0,1-1.58-.48,2.73,2.73,0,0,1-.89-1.2l-3-8.11H167.83l-3,8.11a2.6,2.6,0,0,1-.87,1.16,2.43,2.43,0,0,1-1.58.52h-5.75l15.62-39.77h7.56Zm-25.74-15h12.68L177.57,77.6q-0.33-.88-0.73-2.08t-0.78-2.6q-0.39,1.4-.76,2.61t-0.73,2.12Z"/><path class="cls-2" d="M226.3,66.08v6.08h-12v33.69h-7.4V72.16h-12V66.08H226.3Z"/><path class="cls-2" d="M242.08,105.85h-7.43V66.08h7.43v39.77Z"/><path class="cls-2" d="M291.91,86a22.06,22.06,0,0,1-1.46,8.1,19.2,19.2,0,0,1-4.1,6.45,18.57,18.57,0,0,1-6.35,4.25,23,23,0,0,1-16.46,0,18.66,18.66,0,0,1-6.38-4.25,19.07,19.07,0,0,1-4.11-6.45,23.22,23.22,0,0,1,0-16.2,19.08,19.08,0,0,1,4.11-6.45,18.66,18.66,0,0,1,6.38-4.25,21.53,21.53,0,0,1,8.24-1.53A21.27,21.27,0,0,1,280,67.18a18.84,18.84,0,0,1,6.35,4.25,19.05,19.05,0,0,1,4.1,6.43A22.06,22.06,0,0,1,291.91,86Zm-7.59,0a18.53,18.53,0,0,0-.87-5.87A12.42,12.42,0,0,0,281,75.68,10.71,10.71,0,0,0,277,72.9a14.77,14.77,0,0,0-10.49,0,10.81,10.81,0,0,0-4,2.78A12.46,12.46,0,0,0,260,80.09a20,20,0,0,0,0,11.74,12.31,12.31,0,0,0,2.52,4.4,10.88,10.88,0,0,0,4,2.76A14.77,14.77,0,0,0,277,99,10.78,10.78,0,0,0,281,96.24a12.28,12.28,0,0,0,2.49-4.4A18.53,18.53,0,0,0,284.32,86Z"/><path class="cls-2" d="M305.19,66.12a1.93,1.93,0,0,1,.59.17,2,2,0,0,1,.51.36,5.8,5.8,0,0,1,.55.62l20.87,26.59q-0.11-1-.15-1.88t0-1.72V66.08H334v39.77h-3.82a3.38,3.38,0,0,1-1.46-.28,3.22,3.22,0,0,1-1.13-1L306.84,78.1q0.08,0.88.12,1.75t0,1.58v24.42h-6.52V66.08h3.88A6.75,6.75,0,0,1,305.19,66.12Z"/><path class="cls-1" d="M7.09,171.85H1.76V132.44H7.09v39.41Z"/><path class="cls-1" d="M24.21,132.62a2.73,2.73,0,0,1,.78.73L47.82,163q-0.08-.71-0.11-1.39t0-1.31V132.44h4.68v39.41h-2.7a2.28,2.28,0,0,1-1.06-.22,2.65,2.65,0,0,1-.84-0.74L25,141.21q0.06,0.69.08,1.35c0,0.44,0,.84,0,1.21v28.08H20.41V132.44h2.75A2.39,2.39,0,0,1,24.21,132.62Z"/><path class="cls-1" d="M98.89,152.16a22.2,22.2,0,0,1-1.4,8.06,17.87,17.87,0,0,1-4,6.21,17.65,17.65,0,0,1-6.13,4,21.33,21.33,0,0,1-7.92,1.42H64.73V132.44H79.47a21.33,21.33,0,0,1,7.92,1.42,17.57,17.57,0,0,1,6.13,4,18,18,0,0,1,4,6.23A22.2,22.2,0,0,1,98.89,152.16Zm-5.47,0a19.77,19.77,0,0,0-1-6.49,13.68,13.68,0,0,0-2.8-4.84,12,12,0,0,0-4.4-3,15.2,15.2,0,0,0-5.75-1H70.1v30.77h9.38a15.22,15.22,0,0,0,5.75-1,12,12,0,0,0,4.4-3,13.53,13.53,0,0,0,2.8-4.83A19.77,19.77,0,0,0,93.42,152.16Z"/><path class="cls-1" d="M133.18,132.44v4.35H114.26v13.09h15.32v4.18H114.26V167.5h18.92v4.35H108.9V132.44h24.28Z"/><path class="cls-1" d="M152.76,151.61l-13-19.17h5.31a1.5,1.5,0,0,1,.85.19,1.85,1.85,0,0,1,.49.55L156.69,149a7.3,7.3,0,0,1,.58-1.26L167,133.29a2.59,2.59,0,0,1,.54-0.62,1.08,1.08,0,0,1,.7-0.23h5.09l-13.06,18.92,13.5,20.49h-5.28a1.35,1.35,0,0,1-.95-0.32,2.9,2.9,0,0,1-.56-0.7L156.39,154.3a5.92,5.92,0,0,1-.49,1.1l-10.29,15.43a4.2,4.2,0,0,1-.56.7,1.21,1.21,0,0,1-.89.32h-5Z"/><rect class="cls-3" x="192.99" y="130.31" width="138" height="6"/><rect class="cls-3" x="192.99" y="149.31" width="100" height="6"/><rect class="cls-3" x="192.99" y="168.31" width="59" height="6"/></svg>