<svg id="Layer_1" data-name="Layer 1" xmlns="http://www.w3.org/2000/svg" viewBox="0 0 193.04 101.3"><defs><style>.cls-1{fill:#fff;}.cls-2{fill:#b0202e;}.cls-3{fill:#89181b;}</style></defs><title>results</title><rect class="cls-1" x="8.39" y="16.17" width="183.11" height="72.09"/><path class="cls-2" d="M72.2,35a1.73,1.73,0,0,0,0,.37,1.67,1.67,0,0,1,0-.37"/><path class="cls-2" d="M72.39,35.79a1.54,1.54,0,0,1-.13-0.33,1.49,1.49,0,0,0,.13.33"/><path class="cls-2" d="M74.35,44.82L75,45.11l-0.64-.3"/><path class="cls-2" d="M72.39,35.8a2.1,2.1,0,0,0,.56.63,2.13,2.13,0,0,1-.56-0.63"/><path class="cls-2" d="M93.5,54.27l0.26,0.15-0.26-.15"/><path class="cls-2" d="M70.56,55.78l-0.17,0,0.17,0"/><path class="cls-2" d="M67.64,55.28l-0.08,0,0.08,0"/><path class="cls-2" d="M68.59,55.49l-0.11,0,0.11,0"/><path class="cls-2" d="M68.72,42.34l0.09,0.05-0.09-.05"/><path class="cls-2" d="M92.55,53.61l0.19,0.14-0.19-.14"/><path class="cls-2" d="M76.68,46.56a2.72,2.72,0,0,0-1-1.08,2.72,2.72,0,0,1,1,1.08"/><path class="cls-2" d="M75.06,45.15c0.2,0.1.38,0.21,0.55,0.31-0.16-.1-0.35-0.21-0.55-0.31"/><path class="cls-2" d="M69.49,42.8l0.19,0.1-0.19-.1"/><path class="cls-2" d="M94.56,54.82L94.88,55l-0.33-.14"/><path class="cls-2" d="M72.45,44.1l0.91,0.33-0.91-.33"/><path class="cls-2" d="M70.33,43.22l0.24,0.12-0.24-.12"/><path class="cls-2" d="M71.25,43.63l0.25,0.1-0.25-.1"/><path class="cls-2" d="M73.48,44.47l0.75,0.3-0.75-.3"/><path class="cls-2" d="M28.57,46.39a5,5,0,0,1,.26.52,5.16,5.16,0,0,0-.26-0.52"/><path class="cls-2" d="M71.63,55.86h0"/><path class="cls-2" d="M27.47,32.66l0.24,0-0.24,0"/><path class="cls-2" d="M28.77,33l0.28,0.14L28.77,33"/><path class="cls-2" d="M28.17,32.81l0.28,0.09-0.28-.09"/><path class="cls-2" d="M27.9,45.56a3.08,3.08,0,0,1,.62.75,3.08,3.08,0,0,0-.62-0.75"/><path class="cls-2" d="M26,44.88a4.86,4.86,0,0,1,.51.06L26,44.88"/><path class="cls-2" d="M26.52,44.94a3.53,3.53,0,0,1,.45.11,3.53,3.53,0,0,0-.45-0.11"/><path class="cls-2" d="M27.07,45.08a2.61,2.61,0,0,1,.77.42,2.56,2.56,0,0,0-.77-0.42"/><path class="cls-2" d="M29.85,33.84a2.61,2.61,0,0,1,.25.37,2.47,2.47,0,0,0-.25-0.37"/><path class="cls-2" d="M29.8,33.78a2.8,2.8,0,0,0-.62-0.53,2.8,2.8,0,0,1,.62.53"/><path class="cls-2" d="M84.33,44.94l0,0.11,0-.11"/><path class="cls-2" d="M84.47,45.77c0,0.07,0,.13,0,0.2l0-.2"/><path class="cls-2" d="M84.54,46.86h0Z"/><path class="cls-2" d="M71.45,67.08a1.47,1.47,0,0,0-1.33,1.49h2.55a1.31,1.31,0,0,0-1.22-1.49"/><path class="cls-2" d="M30.33,34.72a4.3,4.3,0,0,0-2.93-1,13,13,0,0,0-2.54.17v5.52h1.21c2.83,0,4.45-1.42,4.45-3.51a3.49,3.49,0,0,0-.39-1.66,3,3,0,0,1,.19.44"/><path class="cls-2" d="M53.12,67.18c-1,0-1.42,1.13-1.42,2.22,0,1.27.5,2.22,1.42,2.22s1.38-.89,1.38-2.22c0-1.1-.4-2.22-1.37-2.22"/><path class="cls-2" d="M44.84,67.35a1.38,1.38,0,0,0-1.29,1.16,1.92,1.92,0,0,0,0,.41v1a2.43,2.43,0,0,0,0,.48,1.33,1.33,0,0,0,1.26,1.09c0.94,0,1.49-.83,1.49-2.08s-0.5-2.07-1.46-2.07"/><path class="cls-2" d="M163.42,55.78l-0.17,0,0.17,0"/><path class="cls-2" d="M95.71,55.25l0.38,0.12-0.38-.12"/><path class="cls-2" d="M165.25,35.79a1.47,1.47,0,0,1-.13-0.33,1.47,1.47,0,0,0,.13.33"/><path class="cls-2" d="M161.58,42.34l0.09,0.05-0.09-.05"/><path class="cls-2" d="M158.84,54.8h0"/><path class="cls-2" d="M161.45,55.49l-0.12,0,0.12,0"/><path class="cls-2" d="M25.34,44.85l0.55,0-0.55,0"/><path class="cls-2" d="M160.5,55.28l-0.09,0,0.09,0"/><path class="cls-2" d="M162.35,42.8l0.19,0.1-0.19-.1"/><path class="cls-2" d="M164.11,43.63l0.24,0.1-0.24-.1"/><path class="cls-2" d="M167.21,44.82l0.64,0.3-0.64-.3"/><path class="cls-2" d="M167.92,45.15c0.2,0.1.38,0.21,0.55,0.31-0.16-.1-0.35-0.21-0.55-0.31"/><path class="cls-2" d="M169.54,46.56a2.7,2.7,0,0,0-1-1.08,2.72,2.72,0,0,1,1,1.08"/><path class="cls-2" d="M0,101.3H193V0H0V101.3Zm133.15-74h21.94v1.17h0.74v6.31h-7.27V56.59H141V55.42H140.3V34.73h-6.41V33.56h-0.74V27.25Zm-15.62,0h7.52v1.17h0.74v20.7h10v1.17h0.74v6.31H118.27V55.42h-0.74V27.25Zm-75.2,0h18.2v1.17h0.74v6.15H50.59V38H59.9v1.17h0.74v6.1H50.59v4H61.11v1.17h0.74v6.19H43.07V55.42H42.33V27.25ZM21.46,67.41H19.91v2.67c0,0.89.2,1.3,0.85,1.3a2.53,2.53,0,0,0,.64-0.06v1.74a3.92,3.92,0,0,1-1.4.21,2.17,2.17,0,0,1-1.62-.65,3.19,3.19,0,0,1-.6-2.19v-3H16.88V65.72H17.8V64.33l2.11-.62v2h1.55v1.69Zm7.82,5.69H27.13V69c0-1-.31-1.63-1.12-1.63a1.15,1.15,0,0,0-1.08.8,1.55,1.55,0,0,0-.07.51V73.1H22.7V62.39h2.15V66.6h0a2.45,2.45,0,0,1,.85-0.75,2.33,2.33,0,0,1,1.12-.29c1.38,0,2.42,1,2.42,3.23V73.1Zm7.85-3H32.67a1.71,1.71,0,0,0,2,1.4,5.74,5.74,0,0,0,1.91-.3l0.28,1.55a6.47,6.47,0,0,1-2.51.47,3.44,3.44,0,0,1-3.7-3.77c0-1.87,1.09-3.94,3.5-3.94,2.24,0,3.09,1.86,3.09,3.68a5.84,5.84,0,0,1-.07.91m-5-13.55a11.15,11.15,0,0,1-.46-1.17H31.4a38.7,38.7,0,0,1-2-6.48,11.28,11.28,0,0,0-.62-2A3.5,3.5,0,0,0,26.08,46h-1.2V56.59H17.43V55.42H16.7V27.63A61.53,61.53,0,0,1,25.75,27c4.28,0,7.36.59,9.47,2.18a6.85,6.85,0,0,1,2,2.37,7.68,7.68,0,0,1,1.56,4.94,7.47,7.47,0,0,1-4.3,6.6h0A6.21,6.21,0,0,1,35.88,45h0a10.29,10.29,0,0,1,1.62,3.48c0.87,2.89,1.79,7,2.33,8.07H32.14Zm13.2,16.67a2.1,2.1,0,0,1-1.8-.85h0v3.67H41.36V68.2c0-1,0-1.8-.06-2.47h1.87l0.1,1h0a2.61,2.61,0,0,1,2.31-1.19c1.52,0,2.88,1.4,2.88,3.76,0,2.69-1.6,4-3.15,4m7.73,0a3.51,3.51,0,0,1-3.59-3.8,3.57,3.57,0,0,1,3.7-3.91,3.48,3.48,0,0,1,3.54,3.77,3.59,3.59,0,0,1-3.66,3.94m12.49-.17h-2L62.87,70.5c-0.17-.73-0.3-1.37-0.44-2.3h0A17.66,17.66,0,0,1,62,70.5L61.26,73.1h-2l-2-7.38h2.2l0.55,3c0.14,0.75.28,1.58,0.4,2.43h0c0.14-.85.34-1.69,0.51-2.41l0.74-3h1.7L64,68.66c0.18,0.83.37,1.66,0.51,2.51h0c0.1-.85.24-1.68,0.4-2.52l0.6-2.93h2.11Zm9-3H70.13a1.71,1.71,0,0,0,2,1.4,5.74,5.74,0,0,0,1.91-.3l0.28,1.55a6.47,6.47,0,0,1-2.51.47,3.44,3.44,0,0,1-3.7-3.77c0-1.87,1.09-3.94,3.5-3.94,2.24,0,3.09,1.86,3.09,3.68a5.71,5.71,0,0,1-.07.91m5.61-2.39a2.08,2.08,0,0,0-.58-0.07,1.4,1.4,0,0,0-1.48,1.16,2.9,2.9,0,0,0,0,.51V73.1H76v-5c0-1.09,0-1.79-.06-2.43h1.86l0.07,1.36h0.06a2.05,2.05,0,0,1,1.87-1.52,2.09,2.09,0,0,1,.45,0v2.17Zm-6.89-10.7a19.66,19.66,0,0,1-8.23-1.76l0.17-.76a9.48,9.48,0,0,1-.91-0.41l1.41-6.23A16.92,16.92,0,0,0,73,49.66c2.58,0,3.82-.88,3.82-2.3a1.84,1.84,0,0,0-.17-0.8,1.76,1.76,0,0,1,.14.41,12,12,0,0,0-3.63-1.71c-3.36-1.19-5.9-2.86-7.1-5.23a7,7,0,0,1-1.5-4.43c0-5,4.15-8.82,11.22-8.82a18,18,0,0,1,7.6,1.46L83.21,29c0.33,0.12.65,0.25,0.95,0.38l-1.58,6a14.56,14.56,0,0,0-6.11-1.34c-2.29,0-3.53.84-3.53,2.09a1.83,1.83,0,0,0,0,.24,18.72,18.72,0,0,0,4.27,1.94c3.34,1.22,5.46,2.83,6.52,4.93h0A7.46,7.46,0,0,1,85.28,48c0,4.85-3.78,9-12,9M88.16,67.41H86.61v2.67c0,0.89.2,1.3,0.85,1.3a2.53,2.53,0,0,0,.64-0.06v1.74a3.92,3.92,0,0,1-1.4.21,2.17,2.17,0,0,1-1.62-.65,3.2,3.2,0,0,1-.6-2.19v-3H83.58V65.72H84.5V64.33l2.11-.62v2h1.55v1.69Zm0.37-40.16h7.52v1.17h0.74v16a10.47,10.47,0,0,0,.74,4.28,5,5,0,0,1-.9-1.56,3.85,3.85,0,0,0,3.82,2.8c3,0,4.45-2.22,4.45-6.69v-16h7.52v1.17h0.74V44c0,8.69-4.32,13.08-12.17,13.08-4.82,0-8.2-1.66-10.05-5.14-1.59-2.17-2.4-5.26-2.4-9.33V27.25Zm4,46a3.51,3.51,0,0,1-3.59-3.8,3.57,3.57,0,0,1,3.7-3.91,3.48,3.48,0,0,1,3.54,3.77,3.59,3.59,0,0,1-3.66,3.94m14-3.12H102a1.71,1.71,0,0,0,2,1.4,5.74,5.74,0,0,0,1.91-.3l0.28,1.55a6.46,6.46,0,0,1-2.51.47,3.44,3.44,0,0,1-3.7-3.77c0-1.87,1.09-3.94,3.5-3.94,2.24,0,3.09,1.86,3.09,3.68a5.71,5.71,0,0,1-.07.91m7.94,3h-2.15V69c0-1-.31-1.6-1.09-1.6a1.16,1.16,0,0,0-1.09.86,1.74,1.74,0,0,0-.08.57V73.1h-2.15v-5c0-.92,0-1.71-0.06-2.35h1.87l0.1,1h0A2.51,2.51,0,0,1,112,65.55c1.42,0,2.48,1,2.48,3.17V73.1Zm6.59,0L120.93,72h0a2.39,2.39,0,0,1-2.17,1.25c-1.64,0-3-1.49-3-3.79,0-2.49,1.45-3.92,3.1-3.92a2.06,2.06,0,0,1,1.83.83h0v-4h2.15V70.9c0,0.83,0,1.71.06,2.2H121Zm10.43,0.17a2.1,2.1,0,0,1-1.8-.85h0v3.67h-2.15V68.2c0-1,0-1.8-.06-2.47h1.87l0.1,1h0a2.61,2.61,0,0,1,2.31-1.19c1.52,0,2.88,1.4,2.88,3.76,0,2.69-1.6,4-3.15,4m7.72,0a3.51,3.51,0,0,1-3.59-3.8,3.57,3.57,0,0,1,3.7-3.91,3.48,3.48,0,0,1,3.54,3.77,3.59,3.59,0,0,1-3.66,3.94m8.8-.17h-2.15l-2.52-7.38h2.34l0.94,3.42a18.09,18.09,0,0,1,.4,1.79h0c0.11-.6.23-1.16,0.38-1.79l0.89-3.42h2.27Zm9.48-3H153a1.71,1.71,0,0,0,2,1.4,5.74,5.74,0,0,0,1.91-.3l0.28,1.55a6.47,6.47,0,0,1-2.51.47,3.44,3.44,0,0,1-3.7-3.77c0-1.87,1.09-3.94,3.5-3.94,2.24,0,3.09,1.86,3.09,3.68a5.83,5.83,0,0,1-.07.91m5.61-2.39a2.1,2.1,0,0,0-.58-0.07A1.4,1.4,0,0,0,161,68.84a2.89,2.89,0,0,0,0,.51V73.1h-2.15v-5c0-1.09,0-1.79-.06-2.43h1.86l0.07,1.36h0.06a2.05,2.05,0,0,1,1.87-1.52,2.1,2.1,0,0,1,.45,0v2.17Zm5.39-.35h-1.54v2.67c0,0.89.2,1.3,0.85,1.3a2.54,2.54,0,0,0,.64-0.06v1.74a3.93,3.93,0,0,1-1.4.21,2.17,2.17,0,0,1-1.61-.65,3.19,3.19,0,0,1-.6-2.19v-3h-0.92V65.72h0.92V64.33l2.11-.62v2h1.54v1.69Zm6.21,3.17c-1,2.93-1.66,4.1-2.44,4.84a3.85,3.85,0,0,1-2.08,1l-0.45-1.95a2.6,2.6,0,0,0,.94-0.39,2.54,2.54,0,0,0,.89-0.92,0.62,0.62,0,0,0,.11-0.33,0.87,0.87,0,0,0-.1-0.38L169,65.72h2.4l1,3.62c0.11,0.44.26,1,.34,1.37h0c0.1-.39.21-1,0.31-1.37L174,65.72h2.31Zm-8.5-13.53a19.66,19.66,0,0,1-8.23-1.76l0.17-.76h0a9.41,9.41,0,0,1-.92-0.42l1.41-6.23a16.92,16.92,0,0,0,7.27,1.76c2.58,0,3.82-.88,3.82-2.3a1.85,1.85,0,0,0-.17-0.8,1.72,1.72,0,0,1,.14.41,12,12,0,0,0-3.62-1.71c-3.36-1.19-5.9-2.86-7.1-5.23a7,7,0,0,1-1.5-4.43c0-5,4.16-8.82,11.22-8.82a18,18,0,0,1,7.6,1.46l-0.79,3L176.08,29c0.33,0.12.64,0.25,0.94,0.38l-1.58,6a14.56,14.56,0,0,0-6.11-1.34c-2.29,0-3.53.84-3.53,2.09a1.82,1.82,0,0,0,0,.24,2.12,2.12,0,0,1-.57-0.63c0.5,0.92,2,1.51,4.84,2.58,3.34,1.22,5.46,2.83,6.52,4.93h0A7.46,7.46,0,0,1,178.14,48c0,4.85-3.78,9-12,9"/><path class="cls-2" d="M165.31,44.1l0.91,0.33-0.91-.33"/><path class="cls-2" d="M166.34,44.47l0.75,0.3-0.75-.3"/><path class="cls-2" d="M164.49,55.86h0"/><path class="cls-2" d="M163.2,43.22l0.24,0.12-0.24-.12"/><path class="cls-2" d="M165.06,35a1.73,1.73,0,0,0,0,.37,1.67,1.67,0,0,1,0-.37"/><path class="cls-2" d="M96.24,45.63c0-.17-0.06-0.35-0.08-0.53,0,0.18,0,.36.08,0.53"/><path class="cls-2" d="M96.4,46.36c0-.17-0.08-0.35-0.12-0.53,0,0.18.08,0.36,0.12,0.53"/><path class="cls-2" d="M96.07,44.06c0-.27,0-0.55,0-0.85,0,0.29,0,.57,0,0.85"/><path class="cls-2" d="M177.4,46.86h0Z"/><path class="cls-2" d="M96.63,47.1c-0.07-.19-0.13-0.39-0.19-0.6,0.06,0.21.12,0.41,0.19,0.6"/><path class="cls-2" d="M91.8,52.93l-0.11-.1,0.11,0.1"/><path class="cls-2" d="M97,55.57l0.42,0.09L97,55.57"/><path class="cls-2" d="M98.37,55.78l0.41,0-0.41,0"/><path class="cls-2" d="M96.14,44.87c0-.19,0-0.38,0-0.57,0,0.2,0,.39,0,0.57"/><path class="cls-2" d="M139.24,67.18c-1,0-1.42,1.13-1.42,2.22,0,1.27.5,2.22,1.42,2.22s1.38-.89,1.38-2.22c0-1.1-.4-2.22-1.37-2.22"/><path class="cls-2" d="M154.32,67.08A1.47,1.47,0,0,0,153,68.57h2.55a1.31,1.31,0,0,0-1.22-1.49"/><path class="cls-2" d="M92.58,67.18c-1,0-1.42,1.13-1.42,2.22,0,1.27.5,2.22,1.42,2.22S94,70.73,94,69.4c0-1.1-.4-2.22-1.37-2.22"/><path class="cls-2" d="M177.34,45.77c0,0.07,0,.13,0,0.2l0-.2"/><path class="cls-2" d="M177.19,44.94l0,0.11,0-.11"/><path class="cls-2" d="M131,67.35a1.38,1.38,0,0,0-1.29,1.16,1.92,1.92,0,0,0,0,.41v1a2.43,2.43,0,0,0,0,.48,1.33,1.33,0,0,0,1.26,1.09c0.94,0,1.49-.83,1.49-2.08s-0.5-2.07-1.46-2.07"/><path class="cls-2" d="M103.35,67.08A1.47,1.47,0,0,0,102,68.57h2.55a1.31,1.31,0,0,0-1.22-1.49"/><path class="cls-2" d="M119.44,67.31c-1,0-1.49.94-1.49,2.1s0.58,2,1.47,2a1.28,1.28,0,0,0,1.25-1.1,2.06,2.06,0,0,0,.06-0.53v-1a4,4,0,0,0,0-.41,1.32,1.32,0,0,0-1.26-1.13"/><path class="cls-2" d="M36.32,46l0.07,0.19L36.32,46"/><path class="cls-2" d="M33.92,42.74l-0.07,0,0.07,0"/><path class="cls-2" d="M34,67.08a1.47,1.47,0,0,0-1.33,1.49h2.55A1.31,1.31,0,0,0,34,67.08"/><path class="cls-2" d="M37.8,33.33l0-.06,0,0.06"/><path class="cls-2" d="M39.09,55.43c-0.54-1.09-1.45-5.18-2.33-8.07C37.63,50.24,38.55,54.34,39.09,55.43Z"/><path class="cls-2" d="M38,34.32s0-.09,0-0.14,0,0.09,0,.14"/><polygon class="cls-3" points="43.07 55.42 43.07 55.42 43.07 56.59 61.85 56.59 61.85 50.41 61.11 50.41 61.11 55.42 43.07 55.42"/><polygon class="cls-3" points="49.85 33.39 49.85 33.4 49.85 37.95 50.59 37.95 50.59 34.56 61.27 34.56 61.27 28.42 60.53 28.42 60.53 33.39 49.85 33.39"/><path class="cls-3" d="M106.55,54.6a10.47,10.47,0,0,1-1.09.46,13.19,13.19,0,0,1-2.44.62,17.74,17.74,0,0,1-2.78.21c-0.51,0-1,0-1.47-.06l-0.41,0c-0.33,0-.66-0.07-1-0.12L97,55.57c-0.3-.06-0.59-0.12-0.88-0.2l-0.38-.12c-0.28-.09-0.56-0.18-0.82-0.29l-0.33-.14c-0.27-.12-0.54-0.25-0.79-0.4l-0.26-.15a8.82,8.82,0,0,1-.77-0.52l-0.19-.14a8.82,8.82,0,0,1-.75-0.68l-0.11-.1a8.76,8.76,0,0,1-.76-0.91h0c1.85,3.47,5.23,5.14,10.05,5.14,7.85,0,12.17-4.39,12.17-13.08V28.42h-0.74V42.8c0,6-2,9.92-5.87,11.8"/><path class="cls-3" d="M28.83,46.91a5.06,5.06,0,0,0-.26-0.52l0-.08a3.08,3.08,0,0,0-.62-0.75l-0.07-.05a2.57,2.57,0,0,0-.77-0.42l-0.09,0a3.6,3.6,0,0,0-.45-0.11A4.84,4.84,0,0,0,26,44.88H25.89l-0.55,0h-1.2V55.42h-6.7v1.17h7.44V46h1.21a3.5,3.5,0,0,1,2.76.89h0Z"/><polygon class="cls-3" points="140.3 33.56 133.89 33.56 133.89 33.56 133.89 34.73 140.3 34.73 140.3 33.56 140.3 33.56"/><path class="cls-3" d="M81.84,34.27a14.54,14.54,0,0,0-6.11-1.34,7,7,0,0,0-1.52.15c-1.32.29-2,1-2,1.94h0a1.73,1.73,0,0,0,0,.37v0.06a1.49,1.49,0,0,0,.13.33h0a2.1,2.1,0,0,0,.56.63h0a1.79,1.79,0,0,1,0-.23c0-1.25,1.25-2.09,3.53-2.09a14.56,14.56,0,0,1,6.11,1.34l1.58-6c-0.3-.13-0.62-0.26-0.95-0.38Z"/><polygon class="cls-3" points="118.27 55.42 118.27 55.42 118.27 56.59 136.55 56.59 136.55 50.28 135.81 50.28 135.81 55.42 118.27 55.42"/><path class="cls-3" d="M170.57,33.07a14.68,14.68,0,0,0-2-.13,7,7,0,0,0-1.52.15c-1.32.29-2,1-2,1.94h0a1.67,1.67,0,0,0,0,.37v0.06a1.49,1.49,0,0,0,.13.33h0a2.12,2.12,0,0,0,.57.63,1.79,1.79,0,0,1,0-.23c0-1.25,1.25-2.09,3.53-2.09a14.55,14.55,0,0,1,6.11,1.34l1.58-6c-0.3-.13-0.62-0.26-0.95-0.38l-0.59,2.23-0.79,3a14.68,14.68,0,0,0-4.13-1.21"/><polygon class="cls-3" points="147.82 33.56 147.82 33.56 147.82 55.43 141.04 55.43 141.04 56.59 148.56 56.59 148.56 34.73 155.83 34.73 155.83 28.42 155.09 28.42 155.09 33.56 147.82 33.56"/><path class="cls-3" d="M176.61,43.3a7.24,7.24,0,0,1,.59,1.64l0,0.11c0,0.23.09,0.47,0.12,0.72,0,0.07,0,.13,0,0.2,0,0.29,0,.58,0,0.88h0c0,3.64-2.13,6.9-6.64,8.3a17.91,17.91,0,0,1-5.32.73l-0.95,0h-0.17l-0.9-.07-0.17,0c-0.62-.07-1.22-0.16-1.8-0.27l-0.12,0-0.83-.18-0.09,0c-0.57-.14-1.1-0.29-1.57-0.46h0l-0.68-.25h0l-0.17.76a19.66,19.66,0,0,0,8.23,1.76c8.18,0,12-4.18,12-9a7.46,7.46,0,0,0-1.54-4.73h0Z"/><path class="cls-3" d="M37.8,33.33a8.51,8.51,0,0,1,.14.85s0,0.09,0,.14a10.3,10.3,0,0,1,.05,1,7.49,7.49,0,0,1-4.82,6.81v0.17a4.64,4.64,0,0,1,.66.35l0.07,0a4.72,4.72,0,0,1,.52.39h0a7.47,7.47,0,0,0,4.3-6.6,7.68,7.68,0,0,0-1.56-4.94,7.43,7.43,0,0,1,.6,1.68l0,0.06"/><path class="cls-3" d="M83.75,43.3h0a7.24,7.24,0,0,1,.59,1.64l0,0.11c0,0.23.09,0.47,0.12,0.72,0,0.07,0,.13,0,0.2,0,0.28,0,.58,0,0.88h0c0,3.64-2.13,6.9-6.64,8.3a17.94,17.94,0,0,1-5.32.73l-0.95,0H71.46l-0.9-.07-0.17,0c-0.62-.07-1.23-0.16-1.81-0.27l-0.11,0-0.84-.19-0.08,0a17.43,17.43,0,0,1-2.3-.72l-0.17.75a19.64,19.64,0,0,0,8.23,1.76c8.18,0,12-4.18,12-9a7.46,7.46,0,0,0-1.54-4.73"/><path class="cls-3" d="M75.63,45.48l0,0c-0.16-.1-0.35-0.21-0.55-0.31l-0.08,0-0.64-.3-0.12,0-0.75-.3-0.12,0-0.91-.33-1-.36-0.25-.1-0.68-.29-0.24-.12-0.65-.32-0.19-.1-0.69-.4-0.09-.05A10,10,0,0,1,66.1,40h0c1.19,2.37,3.73,4,7.1,5.23A12,12,0,0,1,76.82,47a1.73,1.73,0,0,0-.14-0.41h0a2.72,2.72,0,0,0-1-1.08"/><path class="cls-3" d="M168.49,45.48l0,0c-0.16-.1-0.35-0.21-0.55-0.31l-0.07,0-0.64-.3-0.11,0-0.75-.3-0.12,0-0.91-.33-1-.36-0.24-.1-0.68-.29-0.24-.12-0.65-.32-0.19-.1-0.69-.4-0.09-.05A10,10,0,0,1,159,40h0c1.19,2.37,3.73,4,7.1,5.23A12,12,0,0,1,169.68,47a1.83,1.83,0,0,0-.14-0.41h0a2.71,2.71,0,0,0-1-1.08"/><path class="cls-3" d="M35.88,45h0a10.76,10.76,0,0,1,.44,1l0.07,0.19c0.13,0.36.26,0.73,0.37,1.12,0.87,2.89,1.79,7,2.33,8.07H31.68a11.16,11.16,0,0,0,.46,1.17h7.69c-0.54-1.09-1.46-5.18-2.33-8.07A10.29,10.29,0,0,0,35.88,45"/><polygon class="cls-3" points="49.85 44.05 49.85 49.24 50.59 49.24 50.59 45.22 60.64 45.22 60.64 39.12 59.91 39.12 59.91 44.05 49.85 44.05"/><rect class="cls-3" x="125.05" y="28.42" width="0.74" height="20.7"/><path class="cls-3" d="M96.07,44.06c0,0.08,0,.15,0,0.23s0,0.39,0,.57l0,0.24c0,0.18,0,.36.08,0.53l0,0.2q0.05,0.27.12,0.53l0,0.13c0.06,0.21.12,0.41,0.19,0.6h0a5,5,0,0,0,.9,1.56,10.49,10.49,0,0,1-.74-4.28v-16H96.05v14.8c0,0.29,0,.57,0,0.85"/><path class="cls-3" d="M24.87,33.94a13,13,0,0,1,2.53-.17,4.32,4.32,0,0,1,2.93,1,2.94,2.94,0,0,0-.19-0.44l0-.07a2.69,2.69,0,0,0-.25-0.37l0-.05a2.8,2.8,0,0,0-.62-0.53l-0.13-.09L28.77,33l-0.32-.13-0.28-.09-0.46-.1-0.24,0a6.68,6.68,0,0,0-.8-0.06,13,13,0,0,0-2.53.17v6.69h0.74V33.94Z"/></svg>